<?xml version="1.0" encoding="iso-8859-1"?>
<!-- Generator: Adobe Illustrator 19.0.0, SVG Export Plug-In . SVG Version: 6.00 Build 0)  -->
<svg version="1.1" id="Capa_1" xmlns="http://www.w3.org/2000/svg" xmlns:xlink="http://www.w3.org/1999/xlink" x="0px" y="0px"
	 viewBox="0 0 480 480" style="enable-background:new 0 0 480 480;" xml:space="preserve" fill="#bfbfbf" width="360" height="360">
<g>
	<g>
		<path d="M473.6,168.107l-89.912-17.984c0.088-2.064,0.312-4.088,0.312-6.176C383.941,64.418,319.422-0.006,239.893,0.053
			c-67.985,0.05-126.672,47.641-140.765,114.149l-0.648-0.392l-23.56,39.072L6.264,168.131c-3.662,0.814-6.267,4.064-6.264,7.816
			v104c-0.001,3.98,2.924,7.355,6.864,7.92l49.192,7.032c0,0.352-0.056,0.696-0.056,1.048c0.154,26.509,21.768,47.875,48.277,47.721
			c23.211-0.134,43-16.858,47.003-39.721h96.664l41.04,151.864c3.619,14.181,16.381,24.112,31.016,24.136
			c17.673-0.009,31.993-14.343,31.984-32.016c-0.001-2.694-0.343-5.376-1.016-7.984l-36.736-136h6.488
			c4.418,26.112,29.168,43.698,55.28,39.28c26.112-4.418,43.698-29.168,39.28-55.28H472c4.418,0,8-3.582,8-8v-104
			C480.001,172.145,477.325,168.867,473.6,168.107z M16,199.947h24v8H16V199.947z M59.088,279.147L16,273.011v-9.064h52.32
			C64.324,268.395,61.193,273.55,59.088,279.147z M104,327.947c-17.673,0-32-14.327-32-32c0-17.673,14.327-32,32-32s32,14.327,32,32
			C136,313.62,121.673,327.947,104,327.947z M240,287.947h-88.72c-4.219-25.97-28.692-43.603-54.663-39.384
			c-0.206,0.033-0.412,0.068-0.617,0.104v-0.72H16v-24h32c4.418,0,8-3.582,8-8v-24c0-4.418-3.582-8-8-8H16v-1.6l65.736-14.6
			c2.135-0.476,3.983-1.806,5.112-3.68l9.384-15.552C98.733,226.148,162.327,287.823,240,287.947c1.208,0,2.4-0.152,3.576-0.184
			l0.048,0.184H240z M240,271.947c-70.692,0-128-57.308-128-128s57.308-128,128-128s128,57.308,128,128
			C367.916,214.604,310.658,271.863,240,271.947z M259.784,286.427c10.599-1.467,21-4.119,31.008-7.904l18.52,68.552l-30.4,10.136
			L259.784,286.427z M335.504,444.027c2.143,8.574-3.07,17.261-11.644,19.404c-8.574,2.143-17.261-3.07-19.404-11.644l-21.368-79.08
			l30.4-10.136L335.504,444.027z M368,327.947c-17.673,0-32-14.327-32-32c0-17.673,14.327-32,32-32c17.673,0,32,14.327,32,32
			C400,313.62,385.673,327.947,368,327.947z M464,271.947h-54.496c-1.662-2.859-3.614-5.54-5.824-8H464V271.947z M464,223.947h-16
			v-24h16V223.947z M464,183.947h-24c-4.418,0-8,3.582-8,8v40c0,4.418,3.582,8,8,8h24v8h-88v0.72
			c-25.913-4.56-50.616,12.75-55.176,38.663c-0.036,0.206-0.071,0.411-0.104,0.617h-10.808l-4.312-16
			c40.939-21.049,69.367-60.38,76.512-105.856L464,182.499V183.947z"/>
	</g>
</g>
<g>
	<g>
		<path d="M240,23.947c-66.274,0-120,53.726-120,120s53.726,120,120,120s120-53.726,120-120
			C359.925,77.704,306.243,24.022,240,23.947z M240,247.947c-57.438,0-104-46.562-104-104s46.562-104,104-104s104,46.562,104,104
			C343.934,201.357,297.41,247.88,240,247.947z"/>
	</g>
</g>
<g>
	<g>
		<path d="M327.352,130.963c-6.253-33.357-28.882-61.324-60.2-74.4l-6.304,14.704c26.316,10.907,45.378,34.323,50.72,62.304
			c4.003,25.769-5.824,51.747-25.88,68.416l10.752,11.856C320.596,193.57,332.333,162.102,327.352,130.963z"/>
	</g>
</g>
<g>
	<g>
		<circle cx="104" cy="295.947" r="16"/>
	</g>
</g>
<g>
	<g>
		<circle cx="368" cy="295.947" r="16"/>
	</g>
</g>
<g>
</g>
<g>
</g>
<g>
</g>
<g>
</g>
<g>
</g>
<g>
</g>
<g>
</g>
<g>
</g>
<g>
</g>
<g>
</g>
<g>
</g>
<g>
</g>
<g>
</g>
<g>
</g>
<g>
</g>
</svg>
