<?xml version="1.0" ?><svg data-name="Layer 1" id="Layer_1" viewBox="0 0 256 256" xmlns="http://www.w3.org/2000/svg"><defs><style>.cls-1{fill:none;stroke:#424242;stroke-linecap:round;stroke-linejoin:round;stroke-width:6px;}.cls-2{fill:#424242;}</style></defs><title/><circle class="cls-1" cx="128" cy="128" r="118.76"/><line class="cls-1" x1="128" x2="128" y1="27.66" y2="45.07"/><line class="cls-1" x1="102.03" x2="106.54" y1="31.08" y2="47.9"/><line class="cls-1" x1="77.83" x2="86.53" y1="41.1" y2="56.18"/><line class="cls-1" x1="57.05" x2="69.36" y1="57.05" y2="69.36"/><line class="cls-1" x1="41.1" x2="56.18" y1="77.83" y2="86.53"/><line class="cls-1" x1="214.9" x2="199.82" y1="178.17" y2="169.47"/><line class="cls-1" x1="31.08" x2="47.9" y1="102.03" y2="106.54"/><line class="cls-1" x1="224.92" x2="208.1" y1="153.97" y2="149.46"/><line class="cls-1" x1="27.66" x2="45.07" y1="128" y2="128"/><line class="cls-1" x1="228.34" x2="210.93" y1="128" y2="128"/><line class="cls-1" x1="31.08" x2="47.9" y1="153.97" y2="149.46"/><line class="cls-1" x1="224.92" x2="208.1" y1="102.03" y2="106.54"/><line class="cls-1" x1="41.1" x2="56.18" y1="178.17" y2="169.47"/><line class="cls-1" x1="214.9" x2="199.82" y1="77.83" y2="86.53"/><line class="cls-1" x1="198.95" x2="186.64" y1="57.05" y2="69.36"/><line class="cls-1" x1="178.17" x2="169.47" y1="41.1" y2="56.18"/><line class="cls-1" x1="153.97" x2="149.46" y1="31.08" y2="47.9"/><circle class="cls-2" cx="128" cy="127.64" r="8.7"/><line class="cls-1" x1="128" x2="78.97" y1="127.64" y2="155.13"/></svg>